<?xml version="1.0" standalone="no"?>
<!DOCTYPE svg PUBLIC "-//W3C//DTD SVG 20010904//EN"
 "http://www.w3.org/TR/2001/REC-SVG-20010904/DTD/svg10.dtd">
<svg version="1.0" xmlns="http://www.w3.org/2000/svg"
 width="700.000000pt" height="700.000000pt" viewBox="0 0 700.000000 700.000000"
 preserveAspectRatio="xMidYMid meet">
<metadata>
Created by potrace 1.14, written by Peter Selinger 2001-2017
</metadata>
<g transform="translate(0.000000,700.000000) scale(0.100000,-0.100000)"
fill="#000000" stroke="none">
<path d="M3205 6849 c-242 -23 -504 -76 -732 -150 -1166 -378 -2036 -1357
-2272 -2559 -46 -233 -55 -342 -55 -640 0 -215 4 -316 17 -410 59 -425 161
-755 350 -1125 319 -626 850 -1151 1485 -1468 353 -176 680 -276 1092 -334
176 -24 643 -24 820 0 408 56 743 158 1087 331 840 420 1452 1151 1728 2062
41 135 86 352 112 534 24 177 24 643 0 820 -58 412 -158 739 -334 1092 -261
522 -660 974 -1143 1295 -435 289 -907 466 -1440 538 -139 19 -572 28 -715 14z
m526 -279 c1397 -108 2548 -1145 2798 -2522 35 -191 46 -321 46 -548 0 -227
-11 -357 -46 -548 -229 -1260 -1221 -2252 -2481 -2481 -189 -35 -321 -45 -548
-45 -227 0 -359 10 -548 45 -758 137 -1445 561 -1909 1176 -829 1101 -829
2606 1 3706 630 836 1647 1296 2687 1217z"/>
</g>
</svg>
